<?xml version="1.0" standalone="no"?>
<!DOCTYPE svg PUBLIC "-//W3C//DTD SVG 20010904//EN"
 "http://www.w3.org/TR/2001/REC-SVG-20010904/DTD/svg10.dtd">
<svg version="1.0" xmlns="http://www.w3.org/2000/svg"
 width="256.000000pt" height="256.000000pt" viewBox="0 0 256.000000 256.000000"
 preserveAspectRatio="xMidYMid meet">

<g transform="translate(0.000000,256.000000) scale(0.100000,-0.100000)"
fill="#000000" stroke="none">
<path d="M12 2548 c-9 -9 -12 -307 -12 -1280 l0 -1268 1280 0 1280 0 0 1280 0
1280 -1268 0 c-973 0 -1271 -3 -1280 -12z m1533 -28 c103 -27 263 -104 342
-164 81 -61 179 -168 222 -242 19 -33 43 -68 53 -80 10 -11 25 -43 32 -70 8
-27 25 -80 37 -119 19 -60 23 -93 23 -225 1 -131 -3 -167 -21 -232 -31 -107
-69 -188 -87 -188 -9 0 -16 1 -16 3 0 2 15 41 34 88 49 123 61 186 60 339 -1
119 -4 145 -28 220 -15 47 -30 101 -33 120 -3 19 -13 44 -23 55 -10 11 -41 54
-67 95 -59 89 -125 160 -213 224 -72 54 -229 136 -259 136 -10 0 -34 6 -52 14
-100 42 -279 49 -404 15 -44 -11 -96 -25 -115 -29 -44 -10 -186 -87 -256 -140
-82 -62 -152 -137 -206 -219 -27 -42 -58 -85 -68 -96 -10 -11 -20 -36 -23 -55
-3 -19 -18 -73 -33 -120 -23 -75 -27 -102 -28 -225 -1 -152 8 -202 64 -342 35
-87 34 -83 16 -83 -18 0 -60 91 -89 190 -18 62 -22 100 -21 225 0 136 3 158
28 235 15 47 31 101 35 120 8 34 37 82 118 199 125 177 358 320 598 367 96 19
277 11 380 -16z m-74 -36 c68 -20 105 -44 87 -55 -10 -7 -10 -9 0 -9 17 0 15
-42 -8 -131 -22 -88 -48 -155 -56 -146 -7 6 -52 -44 -50 -55 0 -3 -10 -19 -24
-34 l-25 -27 34 19 c79 45 131 140 152 277 15 98 22 110 29 57 6 -37 7 -39 8
-13 3 45 14 47 42 5 23 -33 25 -45 23 -133 0 -53 -6 -106 -12 -117 -14 -26
-42 -148 -32 -136 5 5 14 31 20 58 7 27 21 67 33 90 13 26 23 70 28 126 7 98
3 108 -70 159 -24 17 -39 31 -33 31 6 0 34 -18 61 -39 86 -69 126 -188 120
-356 l-4 -90 -3 105 -3 105 -12 -65 -12 -65 -11 45 -11 45 -1 -61 c-1 -57 1
-64 44 -118 25 -32 45 -63 44 -70 0 -7 -2 -6 -6 2 -3 7 -22 11 -51 11 -28 -1
-37 -4 -22 -6 33 -6 48 -20 53 -46 3 -22 4 -21 16 3 11 24 11 24 6 -9 -3 -18
-6 -50 -6 -70 l-1 -36 -8 30 c-8 30 -8 29 -9 -8 -1 -24 5 -45 16 -55 16 -16
16 -15 10 8 -6 24 -5 24 8 6 44 -58 -21 -202 -98 -221 -31 -8 -90 12 -81 27 3
5 16 2 30 -6 13 -9 30 -16 39 -16 26 0 94 70 105 108 10 40 6 57 -5 20 -12
-36 -45 -76 -75 -88 -42 -17 -176 3 -257 40 -49 22 -61 25 -43 10 14 -11 29
-20 33 -20 5 0 5 -5 2 -11 -4 -6 3 -13 14 -16 21 -5 21 -6 4 -26 -18 -20 -18
-21 7 -4 13 9 34 17 45 16 14 0 16 -2 5 -6 -47 -17 -93 -97 -83 -144 5 -24 2
-29 -15 -29 -11 0 -23 8 -25 18 -4 13 -5 11 -6 -5 -1 -23 -16 -28 -63 -24 -10
1 -26 -3 -37 -8 -13 -7 -22 -8 -26 -1 -3 5 -21 9 -40 7 -24 -1 -31 -6 -26 -15
4 -8 6 -25 3 -38 -3 -20 -7 -22 -23 -13 -20 10 -26 44 -9 54 18 11 0 25 -31
25 -28 0 -30 2 -24 28 10 49 -30 122 -80 142 -20 9 -20 9 0 9 11 1 31 -6 43
-15 26 -18 30 -7 5 12 -10 7 -13 14 -7 14 11 0 93 70 83 70 -2 0 -31 -14 -64
-31 -45 -23 -81 -33 -150 -40 -103 -11 -122 -3 -163 67 -21 36 -22 37 -16 9 9
-40 42 -84 76 -101 32 -16 52 -18 43 -4 -4 6 11 10 37 9 l43 -1 -35 -13 c-59
-23 -79 -18 -125 28 -33 33 -45 54 -55 99 -12 51 -11 60 3 75 8 10 17 29 20
43 l4 25 2 -25 c1 -14 6 -32 11 -40 7 -11 10 -4 10 27 0 24 -6 48 -15 57 -8 8
-15 25 -15 38 0 18 2 20 10 8 7 -10 10 -11 11 -2 1 6 2 16 3 22 2 15 20 28 46
33 17 3 12 5 -15 6 -23 0 -47 -5 -55 -11 -18 -18 18 42 54 86 32 40 44 105 27
146 -9 22 -10 20 -10 -22 -1 -27 -5 -48 -11 -48 -6 0 -10 32 -10 77 0 42 -3
74 -6 71 -3 -4 -9 -55 -14 -115 l-9 -108 4 115 c5 139 28 218 84 282 38 43
121 98 121 80 0 -6 -10 -12 -23 -16 -13 -3 -42 -23 -64 -44 l-42 -38 3 -79 c2
-61 10 -99 34 -160 17 -44 33 -93 37 -109 3 -15 9 -26 12 -23 3 4 -6 44 -21
91 -46 148 -44 255 5 310 l28 31 2 -35 1 -35 11 45 11 45 3 -35 c5 -59 34
-181 53 -226 22 -50 84 -116 132 -139 l33 -16 -28 21 c-15 12 -25 25 -22 30 3
5 -15 26 -39 47 -38 32 -48 50 -70 121 -36 114 -42 158 -25 179 10 11 10 14 2
9 -7 -4 -13 -3 -13 3 0 16 100 60 160 70 69 12 182 5 251 -15z m-611 -154 c0
-5 -12 -24 -28 -40 -20 -23 -32 -29 -46 -24 -17 7 -15 11 20 41 41 34 54 40
54 23z m979 -28 c30 -22 32 -26 15 -35 -14 -8 -23 -4 -46 22 -29 32 -38 58
-15 45 6 -4 27 -18 46 -32z m-1069 -60 c0 -10 -18 -35 -40 -57 -31 -31 -42
-36 -53 -26 -12 9 -18 6 -31 -13 -9 -14 -17 -33 -17 -43 -1 -17 -2 -17 -6 -1
-5 21 34 81 48 73 5 -4 6 0 3 8 -3 9 11 26 37 46 49 36 59 38 59 13z m1171
-29 c53 -50 80 -90 78 -120 0 -12 -3 -10 -8 7 -16 51 -33 70 -54 58 -16 -8
-26 -3 -58 31 -24 25 -37 46 -33 55 9 25 21 20 75 -31z m-1113 26 c-2 -6 -8
-10 -13 -10 -5 0 -11 4 -13 10 -2 6 4 11 13 11 9 0 15 -5 13 -11z m1012 2 c0
-5 -7 -11 -15 -15 -9 -3 -15 0 -15 9 0 8 7 15 15 15 8 0 15 -4 15 -9z m-1074
-93 c-31 -30 -56 -53 -56 -52 0 2 4 14 10 28 9 24 88 91 97 82 3 -2 -21 -28
-51 -58z m1120 10 c54 -57 44 -67 -12 -12 -30 29 -54 56 -54 59 0 11 35 -14
66 -47z m-1266 -103 c0 -20 -17 -35 -33 -29 -15 5 -15 8 -1 36 12 24 18 28 25
17 5 -8 9 -18 9 -24z m1450 -16 c0 -4 -6 -9 -14 -12 -21 -8 -39 18 -31 44 l7
22 19 -24 c10 -13 19 -27 19 -30z m-1415 11 c10 -11 16 -20 13 -20 -3 0 -13 9
-23 20 -10 11 -16 20 -13 20 3 0 13 -9 23 -20z m32 -2 c-3 -8 -6 -5 -6 6 -1
11 2 17 5 13 3 -3 4 -12 1 -19z m1308 2 c-10 -11 -21 -18 -23 -15 -3 3 3 12
14 20 27 20 30 18 9 -5z m-1451 -49 c-10 -10 -21 -16 -24 -14 -3 3 4 11 14 19
28 20 33 17 10 -5z m186 4 c10 -11 9 -18 -3 -30 -19 -19 -28 -19 -21 -1 10 26
-13 26 -35 0 -25 -29 -36 -26 -26 6 11 35 64 50 85 25z m1245 -11 c30 -32 34
-60 8 -45 -10 5 -18 18 -18 28 0 10 -8 19 -17 21 -11 2 -18 -3 -18 -12 0 -18
-8 -20 -28 -7 -11 6 -10 11 3 25 23 23 42 20 70 -10z m95 -9 c0 -31 -29 -41
-53 -16 -19 19 -19 19 9 34 34 18 44 14 44 -18z m-1445 11 c18 -13 17 -14 -9
-31 -25 -16 -29 -17 -43 -2 -34 34 11 63 52 33z m1490 3 c11 -17 -1 -21 -15
-4 -8 9 -8 15 -2 15 6 0 14 -5 17 -11z m-1525 -79 c8 12 10 10 10 -7 0 -17 -4
-21 -17 -16 -25 9 -43 24 -43 36 0 5 9 2 21 -9 17 -16 22 -16 29 -4z m-70 -78
c-56 -179 -41 -380 41 -561 39 -85 22 -106 -19 -24 -62 123 -77 192 -77 363 0
122 4 168 19 215 26 84 36 102 47 83 5 -9 0 -39 -11 -76z m1629 12 c31 -92 40
-295 18 -400 -19 -88 -76 -234 -94 -241 -25 -10 -25 4 0 54 63 123 94 296 77
428 -13 106 -49 228 -64 217 -14 -11 -46 -23 -46 -17 0 9 54 33 69 31 10 -2
25 -29 40 -72z m-1469 2 c0 -2 -7 -7 -16 -10 -8 -3 -12 -2 -9 4 6 10 25 14 25
6z m1340 -70 c0 -12 -5 -7 -19 24 -11 24 -11 24 3 6 9 -11 16 -24 16 -30z
m-1399 -13 c-12 -20 -14 -14 -5 12 4 9 9 14 11 11 3 -2 0 -13 -6 -23z m1325
-19 c8 -18 14 -41 13 -51 0 -10 -5 -2 -11 17 -5 19 -15 40 -21 45 -16 13 -21
39 -6 30 6 -4 17 -22 25 -41z m-1236 21 c-7 -9 -19 -39 -26 -68 -13 -48 -14
-49 -9 -10 6 49 24 93 38 93 5 0 4 -7 -3 -15z m1327 -97 c-2 -13 -4 -3 -4 22
0 25 2 35 4 23 2 -13 2 -33 0 -45z m-1430 -20 c-3 -7 -5 -2 -5 12 0 14 2 19 5
13 2 -7 2 -19 0 -25z m80 -30 c-3 -8 -6 -5 -6 6 -1 11 2 17 5 13 3 -3 4 -12 1
-19z m431 -226 c4 37 22 27 22 -12 0 -38 -2 -40 -20 -30 -16 9 -20 20 -18 63
l1 52 7 -45 c4 -25 8 -37 8 -28z m417 21 c0 -28 -5 -51 -13 -56 -7 -5 -10 -13
-6 -18 4 -6 11 -6 20 2 8 6 14 7 14 2 0 -12 -39 -58 -44 -52 -7 7 -18 119 -12
119 4 0 11 -10 16 -22 7 -20 9 -17 9 18 1 32 7 54 15 54 1 0 1 -21 1 -47z
m-450 -13 c5 -36 1 -29 -16 25 -6 20 -6 26 1 19 5 -5 12 -25 15 -44z m477 13
c-3 -16 -7 -22 -10 -15 -4 13 4 42 11 42 2 0 2 -12 -1 -27z m-452 -83 c4 7 13
9 19 6 12 -8 15 -46 4 -46 -16 1 -43 28 -42 41 0 12 1 12 6 0 4 -10 7 -11 13
-1z m80 -30 c0 -20 -5 -30 -15 -30 -18 0 -30 24 -21 45 10 28 36 17 36 -15z
m295 20 c9 -14 -13 -50 -30 -50 -18 0 -20 46 -2 53 19 8 25 8 32 -3z m-177
-38 c3 -29 1 -32 -22 -32 -22 0 -26 5 -26 28 0 33 8 44 30 40 9 -2 16 -16 18
-36z m62 17 c16 -29 5 -49 -25 -49 -19 0 -25 5 -25 23 0 23 16 47 32 47 4 0
12 -9 18 -21z m55 -10 c0 -15 -7 -25 -17 -27 -13 -3 -18 3 -18 21 0 13 3 27 7
31 13 12 28 -1 28 -25z m-684 0 c-16 -6 -28 -6 -35 1 -7 7 1 10 25 9 32 0 33
-1 10 -10z m999 -63 c0 -70 -1 -75 -22 -78 -16 -2 -25 -12 -29 -33 -5 -24 -7
-19 -9 25 -1 30 -4 46 -7 35 -2 -11 -6 -29 -8 -41 -4 -17 -10 -20 -35 -16
l-30 4 0 73 c0 67 2 73 23 79 40 10 46 7 50 -31 3 -35 4 -34 5 10 2 45 3 47
32 47 l30 0 0 -74z m-856 47 c-1 -7 -2 -38 -2 -68 -2 -48 -5 -55 -22 -55 -15
0 -20 -7 -20 -25 0 -14 -4 -25 -10 -25 -11 0 -14 109 -4 159 6 27 11 32 33 29
14 -2 26 -9 25 -15z m952 -83 c1 -52 -1 -83 -3 -67 -4 22 -9 27 -33 27 -28 0
-28 0 -32 70 l-3 71 35 -3 35 -3 1 -95z m-816 29 c0 -46 -1 -49 -27 -50 l-28
-1 30 -8 30 -8 -27 -1 c-23 -1 -28 -6 -28 -26 0 -14 -4 -25 -10 -25 -5 0 -10
11 -10 25 0 20 -5 25 -27 26 l-28 1 30 8 30 8 -28 1 c-26 1 -27 3 -26 50 2 48
3 50 33 53 17 2 43 1 59 -1 25 -3 27 -6 27 -52z m30 6 c0 -30 -4 -55 -10 -55
-5 0 -10 25 -10 55 0 30 5 55 10 55 6 0 10 -25 10 -55z m29 -52 c-1 -91 -3
-100 -9 -58 -12 73 -12 165 0 165 6 0 9 -42 9 -107z m806 97 c8 -13 -5 -13
-25 0 -13 8 -13 10 2 10 9 0 20 -4 23 -10z m-1126 -27 c15 -33 15 -33 -15 -33
-21 0 -25 4 -21 20 3 11 1 18 -4 14 -5 -3 -9 -14 -9 -25 0 -10 -4 -19 -8 -19
-4 0 -6 15 -4 33 3 25 8 32 27 33 15 1 26 -6 34 -23z m1210 18 c14 -8 18 -26
20 -95 2 -76 0 -86 -18 -95 -11 -6 -30 -11 -43 -10 -16 1 -12 4 15 11 36 10
37 12 37 54 0 24 -2 44 -4 44 -3 0 -16 -4 -30 -10 -21 -8 -26 -6 -26 6 0 8 -5
12 -11 9 -6 -5 -9 10 -8 44 2 46 5 51 26 51 14 0 32 -4 42 -9z m-385 -36 c4
-19 4 -51 0 -70 -5 -28 -11 -35 -29 -35 -48 0 -55 9 -55 66 0 47 3 56 23 64
42 17 54 12 61 -25z m306 -20 c0 -38 -3 -45 -20 -45 -17 0 -20 7 -20 45 0 38
3 45 20 45 17 0 20 -7 20 -45z m-1080 15 c0 -11 -7 -20 -15 -20 -8 0 -15 9
-15 20 0 11 7 20 15 20 8 0 15 -9 15 -20z m324 -36 c8 -20 -1 -34 -20 -34 -8
0 -14 10 -14 25 0 28 24 34 34 9z m352 1 c6 -16 -12 -45 -27 -45 -10 0 -12 44
-2 53 11 11 23 8 29 -8z m544 -15 c0 -10 -4 -21 -9 -24 -10 -7 -20 23 -14 42
6 17 23 4 23 -18z m-1277 13 c-7 -2 -19 -2 -25 0 -7 3 -2 5 12 5 14 0 19 -2
13 -5z m665 -23 l-1 -30 -119 0 c-77 0 -117 4 -113 10 3 6 -1 10 -9 10 -9 0
-16 9 -16 20 0 19 7 20 129 20 l130 0 -1 -30z m-850 2 c3 -11 -8 -12 -54 -6
-94 11 -108 24 -25 21 52 -1 76 -6 79 -15z m87 2 c15 -12 17 -18 6 -21 -11 -5
-11 -7 0 -14 10 -6 6 -9 -13 -9 -15 0 -34 7 -42 16 -19 18 -21 28 -4 18 8 -5
9 -2 5 9 -8 22 21 22 48 1z m55 5 c0 -11 50 -6 86 8 10 4 14 -2 14 -21 0 -24
-3 -26 -44 -26 -25 0 -48 -4 -51 -10 -14 -22 -33 -9 -37 25 -3 29 -1 35 14 35
10 0 18 -5 18 -11z m727 -11 c-3 -8 -6 -5 -6 6 -1 11 2 17 5 13 3 -3 4 -12 1
-19z m748 11 c-56 -11 -145 -11 -145 1 0 6 37 10 93 9 76 -1 85 -3 52 -10z
m-1610 -72 c31 -53 169 -182 250 -235 86 -57 206 -107 297 -126 57 -12 88 -29
75 -42 -9 -9 -175 32 -235 57 -111 48 -208 114 -302 209 -53 52 -110 116 -128
142 l-32 46 29 -11 c16 -6 37 -24 46 -40z m1570 45 c-6 -4 -32 -34 -57 -68
-68 -89 -194 -202 -286 -258 -126 -75 -382 -154 -366 -113 3 9 33 22 77 31
206 47 411 177 532 339 26 34 54 65 64 69 22 9 49 10 36 0z m-122 -28 c-11
-17 -19 -22 -21 -14 -3 7 3 19 14 27 26 19 27 17 7 -13z m-1392 -12 c-7 -2
-18 1 -23 6 -8 8 -4 9 13 5 13 -4 18 -8 10 -11z m750 -7 c54 -20 109 -61 109
-83 -1 -14 -2 -14 -12 3 -11 21 -48 54 -60 55 -5 0 -7 -6 -5 -12 1 -8 -7 -12
-23 -10 -23 2 -23 1 5 -11 17 -8 39 -25 50 -37 18 -21 16 -21 -16 3 -20 15
-44 27 -55 27 -15 -1 -13 -4 10 -16 27 -15 28 -19 23 -67 -6 -50 -5 -51 8 -22
l14 30 -2 -30 c0 -17 2 -35 6 -41 4 -7 -10 -16 -33 -24 -46 -15 -65 -34 -54
-52 5 -7 7 -24 5 -37 -2 -15 1 -21 8 -17 14 9 14 4 -1 -31 -6 -15 -10 -34 -9
-40 1 -7 -2 -13 -7 -13 -5 0 -12 -9 -15 -20 -3 -11 -10 -20 -17 -20 -6 0 -10
5 -8 12 3 7 -6 32 -18 57 -13 29 -18 48 -12 52 6 4 8 13 6 20 -3 8 4 27 15 43
12 16 16 27 10 23 -6 -4 -33 3 -60 16 l-48 22 6 65 c5 54 6 58 9 25 l3 -40 4
37 c3 24 12 44 26 54 l22 16 -22 -5 c-13 -3 -23 -3 -23 -1 0 3 10 9 23 14 18
8 16 9 -12 4 -30 -5 -33 -4 -27 11 6 16 5 17 -16 2 -13 -8 -22 -20 -21 -25 1
-5 -5 -9 -13 -9 -37 0 18 50 82 72 51 18 92 18 145 0z m154 -18 c16 -5 15 -5
-4 -4 -14 1 -26 9 -28 17 -3 10 -2 11 4 4 4 -7 17 -14 28 -17z m-780 -65 c90
-84 213 -156 320 -188 60 -18 94 -38 83 -49 -10 -10 -187 53 -248 87 -30 17
-73 45 -95 61 -50 37 -165 149 -165 159 0 21 29 2 105 -70z m38 61 c-13 -2
-33 -2 -45 0 -13 2 -3 4 22 4 25 0 35 -2 23 -4z m1046 -28 c-2 -2 -22 -6 -44
-9 l-40 -5 38 11 c20 6 37 16 38 22 0 6 3 5 6 -2 3 -7 3 -15 2 -17z m-973 -18
c21 -4 21 -4 -3 -3 -17 1 -28 7 -29 16 0 8 1 10 3 3 2 -6 15 -14 29 -16z m128
20 c14 3 31 1 39 -4 10 -5 -12 -9 -59 -10 -41 -1 -74 2 -74 7 0 10 63 18 68 9
1 -3 13 -4 26 -2z m78 -9 c-7 -7 -12 -8 -12 -2 0 14 12 26 19 19 2 -3 -1 -11
-7 -17z m591 2 c4 -3 -6 -5 -23 -2 -17 2 -33 8 -36 14 -6 10 46 0 59 -12z m53
-7 c13 2 24 0 24 -4 0 -5 -13 -9 -30 -9 -25 0 -30 4 -29 23 1 18 2 19 6 4 4
-14 12 -18 29 -14z m174 23 c0 -2 -9 -6 -20 -9 -11 -3 -18 -1 -14 4 5 9 34 13
34 5z m29 -52 c-48 -50 -141 -115 -226 -158 -71 -35 -212 -80 -222 -71 -10 11
26 33 74 44 105 26 278 123 344 195 14 14 34 26 45 26 17 0 16 -5 -15 -36z
m-751 -95 l-3 -44 -5 52 c-3 29 -1 48 3 44 5 -5 7 -28 5 -52z m299 -14 c2 -59
-1 -69 -33 -115 -19 -27 -34 -55 -35 -62 0 -9 -2 -10 -5 -1 -3 6 11 36 31 65
34 49 36 56 30 105 -5 44 -2 73 8 73 1 0 3 -29 4 -65z m-276 -71 c7 -9 23 -20
36 -25 13 -5 23 -14 23 -21 0 -9 -3 -9 -12 0 -18 18 -38 15 -31 -5 3 -10 -6
-3 -21 16 -14 19 -26 39 -26 43 0 13 17 9 31 -8z m220 -35 c-12 -10 -27 -16
-33 -13 -5 4 3 14 19 24 35 22 46 15 14 -11z m-153 -114 c4 -6 -1 -2 -10 8
-10 11 -18 27 -17 36 0 10 4 7 10 -8 5 -14 13 -30 17 -36z m656 -50 c30 -13
36 -20 30 -33 -4 -9 -8 -34 -8 -55 -1 -34 -5 -40 -36 -54 l-35 -15 40 -20 40
-20 0 -74 c0 -72 -1 -74 -27 -79 -14 -4 -53 -24 -84 -47 -33 -23 -60 -36 -62
-29 -2 6 -27 11 -57 11 -40 0 -79 -11 -161 -45 -59 -24 -109 -43 -111 -42 -1
2 47 33 106 70 116 72 121 78 121 159 0 41 -2 46 -17 41 -17 -6 -17 -5 0 14
13 15 17 38 17 105 l0 85 -51 23 c-28 13 -52 27 -55 32 -3 4 39 6 93 5 75 -2
105 2 128 14 28 16 31 16 60 -7 17 -13 48 -30 69 -39z m-1306 36 c-6 -16 -87
-100 -113 -117 -27 -17 -35 -5 -10 16 25 21 17 30 -29 30 l-44 0 -2 -176 c-1
-197 6 -224 58 -224 20 -1 5 -12 -63 -44 -49 -24 -114 -57 -143 -74 -29 -18
-55 -32 -59 -32 -3 0 15 24 39 53 66 77 68 83 68 214 0 128 -4 139 -55 167
l-30 17 48 -5 48 -6 -3 55 -3 55 -53 0 c-39 0 -61 -6 -79 -20 -15 -11 -28 -18
-31 -15 -2 2 5 29 18 60 l22 55 210 0 c118 0 208 -4 206 -9z m1792 -101 c22 0
40 -3 40 -7 -1 -16 -37 -51 -56 -55 -17 -3 -19 -14 -22 -92 -3 -94 8 -127 35
-105 8 7 17 9 23 3 5 -5 -7 -26 -31 -52 l-40 -42 -45 30 c-38 27 -43 34 -34
51 6 10 9 60 8 112 l-3 92 -27 3 -28 3 0 -108 -1 -108 -64 -37 -64 -38 -62 39
c-35 22 -56 42 -50 45 14 9 15 182 1 191 -13 8 -13 25 1 25 6 0 31 13 55 30
36 24 44 26 44 12 0 -14 3 -14 21 4 l21 21 50 -33 c27 -19 54 -34 58 -34 9 0
45 51 45 65 0 6 18 28 40 50 l40 40 3 -52 3 -53 39 0z m-1524 -30 c32 0 29
-30 -4 -45 -22 -9 -23 -15 -20 -100 3 -82 5 -90 23 -90 27 0 25 -15 -7 -53
l-27 -32 -43 27 -43 27 3 108 c3 93 2 108 -12 108 -20 0 -20 11 -1 36 8 10 15
26 15 34 0 8 19 31 43 51 l42 37 3 -54 c3 -50 5 -54 28 -54z m181 2 c32 -3 32
-4 17 -28 -9 -13 -25 -24 -35 -24 -17 0 -19 -8 -19 -82 0 -89 8 -112 32 -103
29 11 26 -10 -7 -48 l-33 -38 -46 32 c-31 22 -43 36 -36 43 5 5 10 52 10 103
0 76 -3 93 -15 93 -8 0 -15 6 -15 14 0 7 7 19 15 26 8 7 15 21 15 31 0 10 17
34 38 53 l37 35 5 -52 c5 -50 6 -52 37 -55z m-432 8 c10 -11 32 -25 49 -31
l31 -11 -3 -100 c-3 -80 -1 -102 11 -111 14 -11 12 -16 -14 -47 l-30 -35 -28
32 -27 32 -32 -30 c-31 -29 -32 -29 -57 -13 -36 23 -45 45 -45 102 0 49 1 51
46 76 34 19 51 23 64 16 37 -20 42 22 5 46 -21 14 -30 14 -55 4 -26 -11 -33
-10 -50 5 -20 18 -20 19 17 31 20 7 48 22 62 33 33 25 34 25 56 1z m909 1 c10
-11 29 -24 44 -30 l27 -11 -2 -111 -2 -111 -38 -20 c-21 -11 -49 -29 -62 -39
-23 -18 -24 -18 -51 4 -15 13 -42 29 -59 37 -25 10 -29 15 -20 26 7 9 10 48 7
112 l-4 99 41 24 c54 32 56 33 49 15 -9 -23 14 -20 28 4 16 25 20 25 42 1z
m-338 -6 c-7 -19 3 -19 25 1 15 14 21 13 65 -12 l49 -27 -2 -111 -2 -110 -38
-19 c-21 -11 -48 -28 -60 -39 l-22 -21 -29 25 c-16 13 -43 30 -60 37 -26 11
-30 16 -22 31 13 25 13 173 0 186 -7 7 4 20 37 41 55 36 68 39 59 18z"/>
<path d="M1081 2344 c0 -11 3 -14 6 -6 3 7 2 16 -1 19 -3 4 -6 -2 -5 -13z"/>
<path d="M1661 2334 c0 -11 3 -14 6 -6 3 7 2 16 -1 19 -3 4 -6 -2 -5 -13z"/>
<path d="M894 2308 c-8 -26 -5 -117 4 -135 4 -6 7 26 7 73 0 46 -1 84 -2 84
-1 0 -5 -10 -9 -22z"/>
<path d="M1734 2242 c-1 -56 2 -76 6 -57 10 39 11 105 2 127 -4 10 -8 -21 -8
-70z"/>
<path d="M861 2234 c0 -11 3 -14 6 -6 3 7 2 16 -1 19 -3 4 -6 -2 -5 -13z"/>
<path d="M1312 2185 c0 -16 2 -22 5 -12 2 9 2 23 0 30 -3 6 -5 -1 -5 -18z"/>
<path d="M912 2046 c-1 -11 -16 -43 -32 -73 -17 -29 -26 -53 -22 -53 5 0 14
11 20 25 8 18 20 25 39 25 16 0 23 3 16 8 -6 4 -13 25 -16 47 -2 22 -4 31 -5
21z"/>
<path d="M1712 2015 c4 -17 0 -29 -11 -35 -13 -8 -11 -9 10 -10 17 0 33 -9 44
-26 9 -14 19 -23 23 -20 3 3 -4 16 -16 29 -11 12 -21 24 -21 27 1 12 -21 60
-27 60 -3 0 -4 -11 -2 -25z"/>
<path d="M1384 1961 c-18 -11 -35 -25 -39 -31 -14 -23 1 -17 40 16 45 38 45
43 -1 15z"/>
<path d="M1245 1942 c17 -17 32 -29 34 -26 6 6 -20 34 -43 46 -15 8 -12 2 9
-20z"/>
<path d="M1266 1862 c18 -26 23 -44 19 -62 -8 -29 -23 -50 -38 -50 -6 0 -2 6
9 14 10 8 16 18 11 22 -4 4 -13 2 -19 -4 -7 -7 -21 -12 -33 -13 -19 0 -19 -1
-1 -8 12 -5 15 -10 9 -14 -17 -11 -90 19 -156 64 -92 63 -133 79 -171 67 -17
-6 -37 -17 -45 -24 -13 -11 -12 -14 2 -20 11 -4 17 -18 17 -38 0 -17 9 -50 20
-73 11 -25 15 -43 8 -43 -7 0 -7 -4 0 -13 17 -20 101 -45 177 -51 59 -5 75 -3
103 14 18 11 38 31 44 45 14 31 28 33 20 3 -5 -22 -5 -22 11 -6 9 9 17 26 17
37 0 38 39 15 41 -23 0 -15 6 -9 18 19 l18 40 18 -42 c18 -46 36 -58 28 -20
-4 20 -3 20 13 -4 9 -15 30 -34 46 -44 36 -21 88 -36 88 -26 0 5 26 10 58 13
62 4 139 36 134 56 -1 7 5 26 13 42 8 16 15 50 15 76 0 40 2 45 15 34 13 -10
15 -9 15 9 0 14 -8 23 -27 27 -16 4 -33 11 -39 15 -15 12 -68 -11 -160 -71
-93 -61 -148 -78 -184 -58 -21 12 -25 21 -25 60 0 25 -3 44 -7 41 -5 -2 -8 0
-8 6 0 6 -14 9 -31 7 -19 -2 -32 1 -36 9 -2 8 -11 16 -18 19 -8 3 -3 -11 11
-32z m55 -85 c-8 -8 -11 -4 -11 14 0 33 14 47 18 19 2 -12 -1 -27 -7 -33z
m-215 -35 c-22 -5 -66 24 -66 43 0 12 10 8 42 -12 30 -21 37 -29 24 -31z m464
16 c-12 -10 -31 -18 -43 -18 -23 0 -21 4 25 35 38 26 53 12 18 -17z m150 -47
c-19 -37 -30 -22 -12 15 11 23 18 31 20 21 2 -9 -2 -25 -8 -36z m-785 -9 c-8
-8 -25 10 -25 26 0 13 2 13 14 -4 8 -10 13 -21 11 -22z"/>
<path d="M1369 1883 c-13 -16 -12 -17 4 -4 9 7 17 15 17 17 0 8 -8 3 -21 -13z"/>
<path d="M1370 1779 c0 -12 25 -22 41 -17 6 2 0 9 -15 16 -16 7 -26 8 -26 1z"/>
<path d="M807 1713 c-4 -3 -7 -11 -7 -17 0 -6 5 -5 12 2 6 6 9 14 7 17 -3 3
-9 2 -12 -2z"/>
<path d="M869 1660 c-3 -21 3 -30 41 -52 25 -15 53 -28 64 -28 10 0 -6 13 -35
28 -36 19 -55 36 -60 52 l-6 25 -4 -25z"/>
<path d="M1750 1661 c0 -20 -37 -52 -81 -71 -23 -10 -23 -10 3 -5 15 3 42 14
61 25 28 16 33 25 29 45 -5 30 -12 33 -12 6z"/>
<path d="M1293 1642 c-21 -13 -64 -123 -61 -155 2 -17 12 -36 24 -44 19 -12
24 -12 38 2 9 9 16 30 16 47 0 38 10 31 19 -14 8 -39 34 -48 62 -22 22 20 20
47 -13 124 -26 61 -54 82 -85 62z m68 -175 c-8 -8 -11 -7 -11 4 0 9 3 19 7 23
4 4 9 2 11 -4 3 -7 -1 -17 -7 -23z"/>
<path d="M1910 2227 c0 -2 15 -16 33 -33 l32 -29 -29 33 c-28 30 -36 37 -36
29z"/>
<path d="M1950 1261 c0 -5 7 -11 15 -15 8 -3 15 -1 15 3 0 5 -7 11 -15 15 -8
3 -15 1 -15 -3z"/>
<path d="M1278 1063 c7 -3 16 -2 19 1 4 3 -2 6 -13 5 -11 0 -14 -3 -6 -6z"/>
<path d="M1783 603 c-9 -3 -13 -27 -13 -70 0 -62 1 -64 23 -58 34 11 45 26 48
67 3 28 -2 41 -16 52 -22 17 -24 17 -42 9z"/>
<path d="M1787 435 c-12 -9 -17 -27 -17 -67 0 -30 -5 -59 -12 -66 -9 -9 -3
-12 28 -12 52 0 64 14 64 74 -1 41 -5 54 -23 67 -19 14 -26 14 -40 4z"/>
<path d="M2077 503 c-4 -3 -7 -44 -7 -91 0 -69 3 -87 18 -98 37 -28 42 -18 42
81 0 83 -2 96 -19 105 -23 12 -26 12 -34 3z"/>
<path d="M567 394 c-13 -13 -7 -71 8 -84 24 -20 47 6 43 49 -2 27 -8 37 -23
39 -12 2 -24 0 -28 -4z"/>
<path d="M1467 493 c-4 -3 -7 -46 -7 -94 0 -80 2 -89 21 -100 33 -17 40 0 37
91 -3 71 -6 85 -24 96 -11 8 -24 11 -27 7z"/>
<path d="M1197 493 c-4 -3 -7 -46 -7 -94 0 -80 2 -89 21 -100 33 -17 40 0 37
91 -3 71 -6 85 -24 96 -11 8 -24 11 -27 7z"/>
</g>
</svg>
